<?xml version="1.0" encoding="UTF-8"?>
<svg id="Capa_1" data-name="Capa 1" xmlns="http://www.w3.org/2000/svg" viewBox="0 0 135.68068905 37.71931621">
  <defs>
    <style>
      .cls-1 {
        stroke-width: 0px;
      }
    </style>
  </defs>
  <polygon class="cls-1" points="0 .30124337 0 2.59358136 4.59730897 2.59358136 4.59730897 15.02178401 7.30097243 15.02178401 7.30097243 2.59358136 11.89898453 2.59358136 11.89898453 .30124337 0 .30124337"/>
  <polygon class="cls-1" points="19.78092687 2.57544416 19.78092687 6.34677435 26.2733096 6.34677435 26.2733096 8.64806782 19.78092687 8.64806782 19.78092687 12.7202643 27.30545406 12.7202643 27.30545406 15.02217994 17.08877734 15.02217994 17.08877734 .30133764 27.30545406 .30133764 27.30545406 2.57544416 19.78092687 2.57544416"/>
  <path class="cls-1" d="m42.58496277,15.02163318l-4.61963368-5.69792653h-2.10641145v5.69792653h-2.69285268l-.01078881-14.71991847h5.33206891c3.19291747,0,5.81125922,2.10947659,5.81125922,4.73016947,0,1.89940939-1.42708975,3.55200586-3.39597129,4.10030726l4.99223227,5.88944174h-3.30990249Zm-4.03389559-7.61556738c1.61715744.00895548,2.97006585-1.11449489,2.97006585-2.42885715,0-1.36965998-1.3737829-2.38377812-2.97006585-2.38377812h-2.70328992v4.81263527h2.70328992Z"/>
  <path class="cls-1" d="m60.18487937,15.02163318l-4.61963368-5.69792653h-2.10641145v5.69792653h-2.69285268l-.01078881-14.71991847h5.33206891c3.19291747,0,5.81125922,2.10947659,5.81125922,4.73016947,0,1.89940939-1.42708975,3.55200586-3.39597129,4.10030726l4.99223227,5.88944174h-3.30990249Zm-4.03389559-7.61556738c1.61715744.00895548,2.97006585-1.11449489,2.97006585-2.42885715,0-1.36965998-1.3737829-2.38377812-2.97006585-2.38377812h-2.70328992v4.81263527h2.70328992Z"/>
  <path class="cls-1" d="m79.15752417,12.78466832h-8.12070252l-1.17072908,2.23704028h-2.91607784L75.01743237,0h.1591295l8.06741764,15.0217086h-2.91678098l-1.16967437-2.23704028Zm-1.04365839-1.98157353l-3.01146326-5.75292258-3.02299916,5.75292258h6.03446241Z"/>
  <polygon class="cls-1" points="95.31962813 2.59361907 87.5398609 2.59361907 88.30235095 .30190325 99.6091373 .30190325 91.83978535 12.72052826 99.6091373 12.72052826 98.84662528 15.02182172 87.5398609 15.02182172 95.31962813 2.59361907"/>
  <path class="cls-1" d="m116.10116801,12.78466832h-8.11999938l-1.17108065,2.23704028h-2.91535273L111.96142778,0h.1591295l8.0670441,15.0217086h-2.9157043l-1.17072908-2.23704028Zm-1.04258171-1.98157353l-3.01256191-5.75292258-3.0222301,5.75292258h6.03479201Z"/>
  <path class="cls-1" d="m123.62222344,12.43757291l2.12801105-1.30633062c.76646719,1.15125948,2.19243631,1.80891195,3.84310279,1.80891195,1.92493526,0,3.38333674-.79479381,3.38333674-1.91794252,0-1.36100616-2.25545528-2.18268525-4.25747233-2.92218135-2.01063052-.76730521-4.24556288-1.66187246-4.24556288-3.97242305,0-2.41064454,2.4369095-4.09074846,5.5236088-4.09074846,2.44732477,0,4.27869839,1.01381648,4.9803448,2.62996887l-2.00091839,1.18708138c-.53210164-.9952645-1.71328994-1.55282303-2.95855193-1.55282303-1.57468335,0-2.83075612.84051387-2.83075612,1.88087627,0,1.15125948,1.58549414,1.56240068,3.67175622,2.32940423,2.71372716,1.02214979,4.82156687,2.14592066,4.82156687,4.46512508,0,2.61171855-2.63994135,4.29152082-6.11943256,4.29152082-2.82029691,0-4.96017346-1.13212304-5.93903305-2.83043957"/>
  <path class="cls-1" d="m60.11045634,35.2261116h-8.12070252l-1.17072908,2.23704028h-2.91607784l8.06741764-15.0217086h.1591295l8.06741764,15.0217086h-2.91678098l-1.16967437-2.23704028Zm-1.04365839-1.98157353l-3.01146326-5.75292258-3.02299916,5.75292258h6.03446241Z"/>
  <polygon class="cls-1" points="82.94580396 22.70626143 82.94580396 37.71931621 82.81763462 37.71931621 71.84494992 27.88431784 71.84494992 37.4811571 69.15244881 37.4811571 69.15244881 22.48725761 69.29142895 22.48725761 80.24251404 32.30402452 80.24251404 22.70626143 82.94580396 22.70626143"/>
  <path class="cls-1" d="m103.0242472,30.12116958c0,4.52042279-3.39414752,7.34188803-8.84397051,7.34188803h-4.88493741v-14.71991847h4.88493741c5.44982298-.00895548,8.84397051,2.82148409,8.84397051,7.37803044m-2.72418638-.00895548c0-3.12327422-2.36307974-5.07735915-6.1301994-5.07735915h-2.19248025v10.12753136h2.2245171c3.74659674,0,6.09816256-1.94543112,6.09816256-5.05017221"/>
  <polygon class="cls-1" points="111.23719298 25.01688744 111.23719298 28.78821763 117.72959767 28.78821763 117.72959767 31.0895111 111.23719298 31.0895111 111.23719298 35.16170759 118.76172016 35.16170759 118.76172016 37.46362322 108.54504344 37.46362322 108.54504344 22.74278092 118.76172016 22.74278092 118.76172016 25.01688744 111.23719298 25.01688744"/>
  <path class="cls-1" d="m123.62182793,34.87901619l2.12801105-1.30633062c.76646719,1.15125948,2.19243631,1.80891195,3.84310279,1.80891195,1.92493526,0,3.38333674-.79479381,3.38333674-1.91794252,0-1.36100616-2.25545528-2.18268525-4.25747233-2.92218135-2.01063052-.76730521-4.24556288-1.66187246-4.24556288-3.97242305,0-2.41064454,2.4369095-4.09074846,5.5236088-4.09074846,2.44732477,0,4.27834681,1.01381648,4.9803448,2.62996887l-2.00091839,1.18708138c-.53210164-.9952645-1.71328994-1.55282303-2.95855193-1.55282303-1.57468335,0-2.83075612.84051387-2.83075612,1.88087627,0,1.15125948,1.58549414,1.56240068,3.67175622,2.32940423,2.71372716,1.02214979,4.8212153,2.14592066,4.8212153,4.46512508,0,2.61171855-2.63958978,4.29152082-6.11908099,4.29152082-2.82029691,0-4.96017346-1.13212304-5.93903305-2.83043957"/>
  <path class="cls-1" d="m23.70293522,25.63304307c0,1.81106126-1.34319629,2.91260371-3.54283978,2.91260371h-1.98039547v-5.83633106l1.98039547-.00401582c2.1996435-.00307314,3.54283978,1.10555827,3.54283978,2.92774317m-1.38099009-.00401582c0-1.09411411-.81865341-1.76072206-2.16545329-1.76072206h-.61309465v3.50722848h.62498212c1.33851601,0,2.15356582-.65950013,2.15356582-1.74650642"/>
  <polygon class="cls-1" points="32.87986477 23.8613859 32.87986477 25.00244556 35.22782699 25.00244556 35.22782699 26.17255867 32.87986477 26.17255867 32.87986477 27.37911586 35.61591665 27.37911586 35.61591665 28.5455148 31.51256395 28.5455148 31.51256395 22.70579009 35.61591665 22.70579009 35.61591665 23.8613859 32.87986477 23.8613859"/>
  <polygon class="cls-1" points="9.20962559 36.28547846 9.20962559 37.45249958 5.10589934 37.45249958 5.10589934 31.6121527 6.47357371 31.6121527 6.47357371 36.28547846 9.20962559 36.28547846"/>
  <path class="cls-1" d="m16.39365695,34.53929256c0-1.67763409,1.59232779-3.0466719,3.53780793-3.0466719,1.94693038,0,3.54319135,1.36903781,3.54319135,3.0466719,0,1.66279628-1.59626098,3.02502793-3.54679495,3.02502793-1.94187655,0-3.53420434-1.36223164-3.53420434-3.02502793m5.69605403-.00710782c0-1.02182928-.97094926-1.85493367-2.16184969-1.85493367-1.18659369,0-2.15356582.8331044-2.15356582,1.85493367,0,1.0144198.96697212,1.84350837,2.15356582,1.84350837,1.19090043,0,2.16184969-.82908857,2.16184969-1.84350837"/>
  <path class="cls-1" d="m30.92988013,36.44486709l1.09371322-.65950013c.29951592.41330937.73440837.60205311,1.32122314.60205311.64190144,0,1.07281676-.22518781,1.07281676-.53655558,0-.42782667-.81504981-.76421322-1.52895724-1.06879368-.76356673-.32588507-1.60454485-.68482056-1.60454485-1.61615239,0-1.01040397.99613049-1.67669141,2.24679786-1.67669141.92882675,0,1.6974473.32927872,2.0052471,1.03602606l-1.00909464.6051451c-.20195516-.34843402-.59545021-.48961003-.975256-.48961003-.51085361,0-.8906594.25392075-.8906594.55478704,0,.34718968.51480878.46704223,1.29674506.78242583,1.12682674.45625795,1.83603192.94894113,1.83603192,1.84752419,0,1.06538117-1.01304981,1.7424906-2.46964948,1.7424906-1.11566439,0-1.93827296-.39847156-2.39441344-1.12314871"/>
</svg>